<?xml version="1.0" encoding="UTF-8"?>
<!-- Created with Inkscape (http://www.inkscape.org/) -->
<svg width="256" height="256" version="1.1" viewBox="0 0 67.73 67.73" xmlns="http://www.w3.org/2000/svg">
 <path d="m31.53 44.21c-4.517-4.116-8.071-11.52-6.79-17.55 1.036-4.876 5.371-5.561 4.43-8.815-.8904-3.081-4.806-2.339-6.91.4689-2.095 2.795-3.442 7.913-2.53 11.98 1.406 6.262 7.564 12.27 11.8 13.92z" fill="#fff" fill-opacity=".7"/>
 <path d="m31.25 36.22c-.3638-2.806-.4494-5.393.6313-8.423.376-1.054 1.276-1.52 2.032-1.52.7568 0 1.664.4576 2.032 1.52 1.054 3.038.9951 5.617.6313 8.423-.3634 2.803-1.432 5.782-2.664 8.059-1.231-2.277-2.3-5.256-2.664-8.059z" fill="#fff" fill-opacity=".5"/>
 <path d="m33.92 62.97s5.778-10.51 0-10.51 0 10.51 0 10.51z" fill="#fff" fill-opacity=".5"/>
 <path d="m45.13 57.76c1.106 1.483-1.283 1.59-1.54.2819-.0901-.4582-.2904-1.644.8111-2.107 2.598-1.091 4.875 3.177 2.603 4.739-2.26 1.554-5.266.6466-5.998-2.727-.563-3.886-.163-4.524-3.845-7.269" fill="none" stroke="#fff" stroke-miterlimit="50" stroke-opacity=".6" stroke-width=".56"/>
 <circle cx="33.92" cy="48.41" r="3.175" fill="#fff" fill-opacity=".7"/>
 <path d="m28.57 43.36c-5.08-3.058-7.607-7.493-8.976-10.31-2.185-4.494-1.083-11.03 1.698-14.89.8119-1.128 1.639-1.671 2.86-2.611 5.525-4.249.3686-8.806-3.66-6.455-5.2 3.033-8.147 7.975-8.444 14.05-.3171 6.488 2.484 13.13 8.315 16.87 2.304 1.484 5.517 2.825 8.206 3.349z" fill="#fff" fill-opacity=".9"/>
 <path d="m32.71 44.21c-2.234-5.832-2.891-8.435-2.595-12.64.3074-4.368 1.788-5.238 2.151-6.342.1587-.4824.4139-1.065-.05504-1.948-1.273-2.397-4.713-1.087-5.967 1.961-2.443 5.939 1.745 15.14 6.466 18.97z" fill="#fff" fill-opacity=".6"/>
 <path d="m36.3 44.21c4.517-4.116 8.071-11.52 6.79-17.55-1.036-4.876-5.371-5.561-4.43-8.815.8904-3.081 4.806-2.339 6.91.4689 2.095 2.795 3.442 7.913 2.53 11.98-1.406 6.262-7.564 12.27-11.8 13.92z" fill="#fff" fill-opacity=".7"/>
 <path d="m39.26 43.36c5.08-3.058 7.607-7.493 8.976-10.31 2.185-4.494 1.083-11.03-1.698-14.89-.8119-1.128-1.639-1.671-2.86-2.611-5.525-4.249-.3686-8.806 3.66-6.455 5.2 3.033 8.147 7.975 8.444 14.05.317 6.488-2.484 13.13-8.315 16.87-2.304 1.484-5.517 2.825-8.206 3.349z" fill="#fff" fill-opacity=".9"/>
 <path d="m35.12 44.21c2.234-5.832 2.891-8.435 2.595-12.64-.3074-4.368-1.788-5.238-2.151-6.342-.1587-.4824-.4139-1.065.05504-1.948 1.273-2.397 4.713-1.087 5.967 1.961 2.443 5.939-1.745 15.14-6.466 18.97z" fill="#fff" fill-opacity=".6"/>
 <path d="m35.82 44.96c3.114-.9874 6.924-1.14 11.23-3.64 2.534-1.472 3.28-2.794 6.467-3.089 3.99-.3687 6.022.1745 11.36 3.152-2.823 1.404-7.428 3.354-10.6 2.628-.5684-.13-1.244-.352-2.18.1863.1625.5342.8235.9342 2.001.8701 3.412-.1857 5.861 1.95 9.765 4.204-4.651 2.02-9.563 1.564-13.38-.8841-.5063-.3245-1.35-.1019-1.827.1439.1415.4623.7676 1.067 1.55 1.148 2.709.1036 5.898 3.294 7.552 4.948-7.787 1.138-14.83-1.3-17.73-4.316-1.981-1.697-2.217-4.287-4.204-5.351z" fill="#fff" fill-opacity=".6"/>
 <path d="m22.6 57.76c-1.106 1.483 1.283 1.59 1.54.2819.0901-.4582.2904-1.644-.8111-2.107-2.598-1.091-4.875 3.177-2.603 4.739 2.26 1.554 5.266.6466 5.998-2.727.563-3.886.163-4.524 3.845-7.269" fill="none" stroke="#fff" stroke-miterlimit="50" stroke-opacity=".6" stroke-width=".56"/>
 <path d="m31.91 44.96c-3.114-.9874-6.924-1.14-11.23-3.64-2.534-1.472-3.28-2.794-6.467-3.089-3.99-.3687-6.022.1745-11.36 3.152 2.823 1.404 7.428 3.354 10.6 2.628.5684-.13 1.244-.352 2.18.1863-.1625.5342-.8235.9342-2.001.8701-3.412-.1857-5.861 1.95-9.765 4.204 4.651 2.02 9.563 1.564 13.38-.8841.5063-.3245 1.35-.1019 1.827.1439-.1415.4623-.7676 1.067-1.55 1.148-2.709.1036-5.898 3.294-7.552 4.948 7.787 1.138 14.83-1.3 17.73-4.316 1.981-1.697 2.217-4.287 4.204-5.351z" fill="#fff" fill-opacity=".6"/>
</svg>
